v 0.3527353 -0.1567472 -0.783312
v 0.2922074 -0.1059629 -0.6636125
v 0.2908647 -0.1034499 -0.783312
v 0.3525623 -0.1585447 -0.663624
v 0.3476578 -0.138387 -0.783312
v 0.3525623 -0.1585447 -0.663624
v 0.3527353 -0.1567472 -0.783312
v 0.3474925 -0.1401378 -0.663624
v 0.2949653 -0.0945066 -0.6636241
v 0.2965067 -0.09435046 -0.783312
v -0.2925117 -0.1063386 -0.6636241
v -0.3527355 -0.1567472 -0.783312
v -0.2887749 -0.1016497 -0.783312
v -0.3525625 -0.1585447 -0.663624
v -0.3527355 -0.1567472 -0.783312
v -0.3474925 -0.1401378 -0.663624
v -0.3476578 -0.1383869 -0.783312
v -0.3525625 -0.1585447 -0.663624
v -0.2946488 -0.09423148 -0.6636241
v -0.2967153 -0.09452995 -0.783312
v -0.20397 -0.1694827 -0.783312
v 7.60598E-07 -0.2149205 -0.663624
v -0.206482 -0.1694827 -0.663624
v 6.873568E-07 -0.2149205 -0.783312
v 0.2064839 -0.1694826 -0.663624
v 0.2039718 -0.1694826 -0.783312
v -0.3259303 0.1626211 -0.663624
v -0.3390197 0.2240041 -0.783312
v -0.3264506 0.1626249 -0.783312
v -0.3391589 0.224004 -0.663624
v -0.340062 0.03958461 -0.663624
v -0.3404608 0.0395846 -0.783312
v -0.3141886 -0.09093519 -0.663624
v -0.3404608 0.0395846 -0.783312
v -0.3131284 -0.0909352 -0.783312
v -0.340062 0.03958461 -0.663624
v 0.3391604 0.2240041 -0.663624
v 0.326452 0.162625 -0.783312
v 0.3390211 0.2240042 -0.783312
v 0.3259319 0.1626212 -0.663624
v 0.3404621 0.03958464 -0.783312
v 0.3400635 0.03958466 -0.663624
v 0.3400635 0.03958466 -0.663624
v 0.3131296 -0.09093515 -0.783312
v 0.3404621 0.03958464 -0.783312
v 0.31419 -0.09093513 -0.663624
v -0.3391589 0.224004 -0.663624
v 0.3390211 0.2240042 -0.783312
v -0.3390197 0.2240041 -0.783312
v 0.3391604 0.2240041 -0.663624
vn -0.6513871 -0.7568591 -0.009765923
vn -0.6640828 -0.7461165 -0.007812738
vn -0.6504105 -0.7578356 -0.009765923
vn -0.6640828 -0.7461165 -0.007812738
vn 0.8427992 0.5351726 0.007812738
vn 0.96292 0.2646565 0.007812738
vn 0.9619434 0.2666097 0.003906369
vn 0.8476821 0.5273598 0.007812738
vn 0.6631062 0.7461165 0.007812738
vn 0.6513871 0.7568591 0.009765923
vn 0.6631062 -0.7461165 -0.007812738
vn 0.6513871 -0.7568591 -0.009765923
vn 0.6513871 -0.7568591 -0.009765923
vn 0.6631062 -0.7461165 -0.007812738
vn -0.9619434 0.2666097 0.003906369
vn -0.8476821 0.5273598 0.007812738
vn -0.8427992 0.5351726 0.007812738
vn -0.96292 0.2646565 0.007812738
vn -0.6631062 0.7461165 0.007812738
vn -0.6513871 0.7568591 0.009765923
vn -0.4062624 -0.9121372 -0.003906369
vn 0 -0.9980773 -0.001953185
vn -0.412122 -0.9092075 -0.003906369
vn 0 -0.9980773 -0.001953185
vn 0.412122 -0.9092075 -0.003906369
vn 0.4062624 -0.9121372 -0.003906369
vn -0.9971008 -0.05175939 0.001953185
vn -0.9804987 -0.1875057 0
vn -0.9980773 -0.0380871 0.001953185
vn -0.9746391 -0.2158269 0
vn -0.9980773 -0.03613392 0
vn -0.9971008 -0.05273598 0
vn -0.8447524 -0.5322428 -0.005859554
vn -0.9971008 -0.05273598 0
vn -0.8310801 -0.5527512 -0.005859554
vn -0.9980773 -0.03613392 0
vn 0.9746391 -0.2158269 0
vn 0.9980773 -0.0380871 0.001953185
vn 0.9804987 -0.1875057 0
vn 0.9971008 -0.05175939 0.001953185
vn 0.9971008 -0.05273598 0
vn 0.9980773 -0.03613392 0
vn 0.9980773 -0.03613392 0
vn 0.8310801 -0.5527512 -0.005859554
vn 0.9971008 -0.05273598 0
vn 0.8447524 -0.5322428 -0.005859554
vn 0 0.999054 0
vn 0 0.999054 0
vn 0 0.999054 0
vn 0 0.999054 0
vt 0.1260438 0.6101348
vt 0.138492 0.6019565
vt 0.125927 0.6019742
vt 0.1385243 0.609949
vt 0.1259971 0.6121098
vt 0.1385243 0.609949
vt 0.1260438 0.6101348
vt 0.1384786 0.6119229
vt 0.1385209 0.6188743
vt 0.1260269 0.6188565
vt 0.1384844 0.6019967
vt 0.1260438 0.6101348
vt 0.1259248 0.6017033
vt 0.1385243 0.609949
vt 0.1260438 0.6101348
vt 0.1384786 0.6119229
vt 0.1259971 0.6121098
vt 0.1385243 0.609949
vt 0.1385221 0.6189184
vt 0.12603 0.61883
vt 0.6466072 0.7085968
vt 0.6335737 0.685932
vt 0.6335713 0.708824
vt 0.6466404 0.6859712
vt 0.6335777 0.7088258
vt 0.6466142 0.7085975
vt 0.2399246 0.8101303
vt 0.26669 0.8240318
vt 0.2666568 0.8100337
vt 0.2399619 0.8241566
vt 0.2398556 0.7824797
vt 0.266589 0.782388
vt 0.6336041 0.7232713
vt 0.6467355 0.7376258
vt 0.6466289 0.723172
vt 0.6336958 0.7376919
vt 0.9038015 0.7808388
vt 0.8770852 0.7668178
vt 0.877081 0.7808098
vt 0.903808 0.7668186
vt 0.8770833 0.7391833
vt 0.9038037 0.7391793
vt 0.6336964 0.7376928
vt 0.6466302 0.7231796
vt 0.6467336 0.7376262
vt 0.6336052 0.7232781
vt 0.8945635 0.5398439
vt 0.8671847 0.3846892
vt 0.8671836 0.5398123
vt 0.8945647 0.3846571

g 0000000000
f 1/1/1 2/2/2 3/3/3
f 1/1/1 4/4/4 2/2/2
f 5/5/5 6/6/6 7/7/7
f 5/5/5 8/8/8 6/6/6
f 9/9/9 5/5/5 10/10/10
f 9/9/9 8/8/8 5/5/5
f 11/11/11 12/12/12 13/13/13
f 11/11/11 14/14/14 12/12/12
f 15/15/15 16/16/16 17/17/17
f 15/15/15 18/18/18 16/16/16
f 17/17/17 19/19/19 20/20/20
f 17/17/17 16/16/16 19/19/19
f 21/21/21 22/22/22 23/23/23
f 21/21/21 24/24/24 22/22/22
f 24/24/24 25/25/25 22/22/22
f 24/24/24 26/26/26 25/25/25
f 27/27/27 28/28/28 29/29/29
f 27/27/27 30/30/30 28/28/28
f 31/31/31 29/29/29 32/32/32
f 31/31/31 27/27/27 29/29/29
f 33/33/33 34/34/34 35/35/35
f 33/33/33 36/36/36 34/34/34
f 23/23/23 35/35/35 21/21/21
f 23/23/23 33/33/33 35/35/35
f 37/37/37 38/38/38 39/39/39
f 37/37/37 40/40/40 38/38/38
f 40/40/40 41/41/41 38/38/38
f 40/40/40 42/42/42 41/41/41
f 43/43/43 44/44/44 45/45/45
f 43/43/43 46/46/46 44/44/44
f 46/46/46 26/26/26 44/44/44
f 46/46/46 25/25/25 26/26/26
f 47/47/47 48/48/48 49/49/49
f 47/47/47 50/50/50 48/48/48

